<svg xmlns="http://www.w3.org/2000/svg" width="176" height="32" viewBox="0 0 176 512" version="1.1"><path d="M 225.204 96.107 C 198.158 99.746, 170.120 112.197, 148.617 130.118 C 122.320 152.034, 104.265 183.137, 97.312 218.500 C 94.854 231.001, 94.854 258.999, 97.312 271.500 C 100.227 286.326, 104.739 299.434, 111.539 312.831 C 132.366 353.861, 169.714 382.212, 216 392.130 C 231.157 395.377, 258.864 395.375, 274 392.125 C 289.061 388.891, 297.750 385.818, 312.500 378.507 C 327.635 371.006, 339.012 362.743, 351.258 350.358 C 362.838 338.646, 370.633 328.005, 377.909 313.977 C 401.281 268.917, 400.475 215.227, 375.776 171.685 C 353.904 133.128, 316.346 106.039, 272.893 97.478 C 262.822 95.494, 235.581 94.710, 225.204 96.107 M 146.174 277.314 C 143.026 280.666, 143.458 283.598, 148.375 292.225 C 163.561 318.873, 189.369 339.122, 217.881 346.758 C 226.482 349.061, 229.351 349.334, 245 349.334 C 260.649 349.334, 263.518 349.061, 272.119 346.758 C 290.503 341.834, 305.497 333.282, 319.877 319.518 C 329.712 310.103, 335.790 302.465, 341.708 292.080 C 346.521 283.633, 347.025 280.033, 343.811 277.039 C 341.640 275.016, 340.856 275, 244.986 275 L 148.349 275 146.174 277.314 M 369.761 364.062 C 365.539 366.291, 362 372.191, 362 377 C 362 378.694, 362.869 381.749, 363.931 383.790 C 366.308 388.358, 406.278 428.193, 410.700 430.402 C 417.603 433.849, 426.471 430.917, 429.987 424.026 C 432.515 419.071, 432.539 414.957, 430.069 410.210 C 427.692 405.642, 387.722 365.807, 383.300 363.598 C 379.063 361.482, 374.341 361.644, 369.761 364.062" stroke="none" fill="#fbfbfb" fill-rule="evenodd"/><path d="M 60.920 2.010 C 31.096 9.348, 7.745 33.314, 1.502 62.992 C 0.197 69.195, 0.001 94.538, 0.007 256.315 C 0.014 437.294, 0.068 442.727, 1.959 450.614 C 9.189 480.768, 33.075 504.205, 62.992 510.498 C 69.195 511.803, 94.538 511.999, 256.315 511.993 C 437.294 511.986, 442.727 511.932, 450.614 510.041 C 470.889 505.180, 488.488 492.690, 499.864 475.090 C 504.571 467.807, 509.502 455.616, 510.524 448.738 C 510.913 446.118, 511.629 443.729, 512.115 443.429 C 512.623 443.115, 513 362.788, 513 254.882 C 513 145.613, 512.628 67.112, 512.112 67.431 C 511.624 67.733, 510.933 66.072, 510.578 63.740 C 507.047 40.556, 486.822 15.773, 463.515 6.071 C 448.066 -0.361, 460.349 -0.007, 255.185 0.072 C 76.515 0.142, 68.175 0.225, 60.920 2.010 M 0.490 256 C 0.490 359.675, 0.607 402.087, 0.750 350.250 C 0.893 298.412, 0.893 213.587, 0.750 161.750 C 0.607 109.912, 0.490 152.325, 0.490 256 M 225.204 96.107 C 198.158 99.746, 170.120 112.197, 148.617 130.118 C 122.320 152.034, 104.265 183.137, 97.312 218.500 C 94.854 231.001, 94.854 258.999, 97.312 271.500 C 100.227 286.326, 104.739 299.434, 111.539 312.831 C 132.366 353.861, 169.714 382.212, 216 392.130 C 231.157 395.377, 258.864 395.375, 274 392.125 C 289.061 388.891, 297.750 385.818, 312.500 378.507 C 327.635 371.006, 339.012 362.743, 351.258 350.358 C 362.838 338.646, 370.633 328.005, 377.909 313.977 C 401.281 268.917, 400.475 215.227, 375.776 171.685 C 353.904 133.128, 316.346 106.039, 272.893 97.478 C 262.822 95.494, 235.581 94.710, 225.204 96.107 M 146.174 277.314 C 143.026 280.666, 143.458 283.598, 148.375 292.225 C 163.561 318.873, 189.369 339.122, 217.881 346.758 C 226.482 349.061, 229.351 349.334, 245 349.334 C 260.649 349.334, 263.518 349.061, 272.119 346.758 C 290.503 341.834, 305.497 333.282, 319.877 319.518 C 329.712 310.103, 335.790 302.465, 341.708 292.080 C 346.521 283.633, 347.025 280.033, 343.811 277.039 C 341.640 275.016, 340.856 275, 244.986 275 L 148.349 275 146.174 277.314 M 369.761 364.062 C 365.539 366.291, 362 372.191, 362 377 C 362 378.694, 362.869 381.749, 363.931 383.790 C 366.308 388.358, 406.278 428.193, 410.700 430.402 C 417.603 433.849, 426.471 430.917, 429.987 424.026 C 432.515 419.071, 432.539 414.957, 430.069 410.210 C 427.692 405.642, 387.722 365.807, 383.300 363.598 C 379.063 361.482, 374.341 361.644, 369.761 364.062" stroke="none" fill="#5665ec" fill-rule="evenodd"/></svg>